<svg xmlns="http://www.w3.org/2000/svg" xmlns:xlink="http://www.w3.org/1999/xlink" width="140" zoomAndPan="magnify" viewBox="0 0 104.88 30.000001" height="40" preserveAspectRatio="xMidYMid meet" version="1.2"><defs><clipPath id="e2e3cb7635"><path d="M 1.632812 1 L 103.128906 1 L 103.128906 28 L 1.632812 28 Z M 1.632812 1 "/></clipPath><clipPath id="81c94b8d28"><rect x="0" width="103" y="0" height="27"/></clipPath></defs><g id="eb50d2354a"><g clip-rule="nonzero" clip-path="url(#e2e3cb7635)"><g transform="matrix(1,0,0,1,1,1)"><g clip-path="url(#81c94b8d28)"><g style="fill:#ffffff;fill-opacity:1;"><g transform="translate(0.772537, 21.040912)"><path style="stroke:none" d="M 6.078125 0.203125 C 5.253906 0.203125 4.507812 0.078125 3.84375 -0.171875 C 3.1875 -0.429688 2.625 -0.800781 2.15625 -1.28125 C 1.695312 -1.757812 1.34375 -2.347656 1.09375 -3.046875 C 0.84375 -3.753906 0.71875 -4.5625 0.71875 -5.46875 C 0.71875 -6.375 0.84375 -7.175781 1.09375 -7.875 C 1.34375 -8.582031 1.695312 -9.175781 2.15625 -9.65625 C 2.625 -10.132812 3.1875 -10.5 3.84375 -10.75 C 4.507812 -11.007812 5.253906 -11.140625 6.078125 -11.140625 C 6.878906 -11.140625 7.601562 -11.003906 8.25 -10.734375 C 8.894531 -10.460938 9.445312 -10.082031 9.90625 -9.59375 C 10.363281 -9.113281 10.71875 -8.539062 10.96875 -7.875 C 11.21875 -7.207031 11.34375 -6.472656 11.34375 -5.671875 C 11.34375 -5.515625 11.332031 -5.367188 11.3125 -5.234375 C 11.300781 -5.097656 11.289062 -4.976562 11.28125 -4.875 C 11.269531 -4.75 11.253906 -4.632812 11.234375 -4.53125 L 3.71875 -4.53125 C 3.820312 -3.914062 4.054688 -3.398438 4.421875 -2.984375 C 4.796875 -2.578125 5.347656 -2.375 6.078125 -2.375 C 6.648438 -2.375 7.066406 -2.460938 7.328125 -2.640625 C 7.597656 -2.828125 7.835938 -3.082031 8.046875 -3.40625 L 11.140625 -3.40625 C 11.015625 -2.9375 10.820312 -2.484375 10.5625 -2.046875 C 10.3125 -1.617188 9.984375 -1.234375 9.578125 -0.890625 C 9.171875 -0.554688 8.675781 -0.289062 8.09375 -0.09375 C 7.519531 0.101562 6.847656 0.203125 6.078125 0.203125 Z M 8.359375 -6.703125 C 8.296875 -6.929688 8.207031 -7.15625 8.09375 -7.375 C 7.976562 -7.601562 7.828125 -7.804688 7.640625 -7.984375 C 7.453125 -8.160156 7.226562 -8.300781 6.96875 -8.40625 C 6.707031 -8.507812 6.410156 -8.5625 6.078125 -8.5625 C 5.410156 -8.5625 4.882812 -8.378906 4.5 -8.015625 C 4.125 -7.660156 3.863281 -7.222656 3.71875 -6.703125 Z M 8.359375 -6.703125 "/></g></g><g style="fill:#ffffff;fill-opacity:1;"><g transform="translate(12.831328, 21.040912)"><path style="stroke:none" d="M 1.34375 -14.4375 L 4.234375 -14.4375 L 4.234375 0 L 1.34375 0 Z M 1.34375 -14.4375 "/></g></g><g style="fill:#ffffff;fill-opacity:1;"><g transform="translate(18.396929, 21.040912)"><path style="stroke:none" d="M 6.078125 0.203125 C 5.253906 0.203125 4.507812 0.078125 3.84375 -0.171875 C 3.1875 -0.429688 2.625 -0.800781 2.15625 -1.28125 C 1.695312 -1.757812 1.34375 -2.347656 1.09375 -3.046875 C 0.84375 -3.753906 0.71875 -4.5625 0.71875 -5.46875 C 0.71875 -6.375 0.84375 -7.175781 1.09375 -7.875 C 1.34375 -8.582031 1.695312 -9.175781 2.15625 -9.65625 C 2.625 -10.132812 3.1875 -10.5 3.84375 -10.75 C 4.507812 -11.007812 5.253906 -11.140625 6.078125 -11.140625 C 6.878906 -11.140625 7.601562 -11.003906 8.25 -10.734375 C 8.894531 -10.460938 9.445312 -10.082031 9.90625 -9.59375 C 10.363281 -9.113281 10.71875 -8.539062 10.96875 -7.875 C 11.21875 -7.207031 11.34375 -6.472656 11.34375 -5.671875 C 11.34375 -5.515625 11.332031 -5.367188 11.3125 -5.234375 C 11.300781 -5.097656 11.289062 -4.976562 11.28125 -4.875 C 11.269531 -4.75 11.253906 -4.632812 11.234375 -4.53125 L 3.71875 -4.53125 C 3.820312 -3.914062 4.054688 -3.398438 4.421875 -2.984375 C 4.796875 -2.578125 5.347656 -2.375 6.078125 -2.375 C 6.648438 -2.375 7.066406 -2.460938 7.328125 -2.640625 C 7.597656 -2.828125 7.835938 -3.082031 8.046875 -3.40625 L 11.140625 -3.40625 C 11.015625 -2.9375 10.820312 -2.484375 10.5625 -2.046875 C 10.3125 -1.617188 9.984375 -1.234375 9.578125 -0.890625 C 9.171875 -0.554688 8.675781 -0.289062 8.09375 -0.09375 C 7.519531 0.101562 6.847656 0.203125 6.078125 0.203125 Z M 8.359375 -6.703125 C 8.296875 -6.929688 8.207031 -7.15625 8.09375 -7.375 C 7.976562 -7.601562 7.828125 -7.804688 7.640625 -7.984375 C 7.453125 -8.160156 7.226562 -8.300781 6.96875 -8.40625 C 6.707031 -8.507812 6.410156 -8.5625 6.078125 -8.5625 C 5.410156 -8.5625 4.882812 -8.378906 4.5 -8.015625 C 4.125 -7.660156 3.863281 -7.222656 3.71875 -6.703125 Z M 8.359375 -6.703125 "/></g></g><g style="fill:#ffffff;fill-opacity:1;"><g transform="translate(30.45572, 21.040912)"><path style="stroke:none" d="M 5.5625 0 C 4.425781 0 3.578125 -0.273438 3.015625 -0.828125 C 2.453125 -1.378906 2.171875 -2.171875 2.171875 -3.203125 L 2.171875 -8.25 L 0.40625 -8.25 L 0.40625 -10.9375 L 2.171875 -10.9375 L 2.578125 -13.8125 L 5.046875 -13.8125 L 5.046875 -10.9375 L 7.625 -10.9375 L 7.625 -8.25 L 5.046875 -8.25 L 5.046875 -3.71875 C 5.046875 -3.394531 5.140625 -3.140625 5.328125 -2.953125 C 5.515625 -2.773438 5.765625 -2.6875 6.078125 -2.6875 L 7.625 -2.6875 L 7.625 0 Z M 5.5625 0 "/></g></g><g style="fill:#ffffff;fill-opacity:1;"><g transform="translate(38.907184, 21.040912)"><path style="stroke:none" d="M 1.234375 -10.9375 L 3.71875 -10.9375 L 4.015625 -9.6875 L 4.125 -9.6875 C 4.4375 -10.15625 4.8125 -10.476562 5.25 -10.65625 C 5.695312 -10.84375 6.179688 -10.9375 6.703125 -10.9375 L 8.046875 -10.9375 L 8.046875 -8.140625 L 6.90625 -8.140625 C 6.03125 -8.140625 5.347656 -7.898438 4.859375 -7.421875 C 4.367188 -6.941406 4.125 -6.289062 4.125 -5.46875 L 4.125 0 L 1.234375 0 Z M 1.234375 -10.9375 "/></g></g><g style="fill:#ffffff;fill-opacity:1;"><g transform="translate(47.255585, 21.040912)"><path style="stroke:none" d="M 6.078125 0.203125 C 5.253906 0.203125 4.507812 0.078125 3.84375 -0.171875 C 3.1875 -0.429688 2.625 -0.800781 2.15625 -1.28125 C 1.695312 -1.757812 1.34375 -2.347656 1.09375 -3.046875 C 0.84375 -3.753906 0.71875 -4.5625 0.71875 -5.46875 C 0.71875 -6.375 0.84375 -7.175781 1.09375 -7.875 C 1.34375 -8.582031 1.695312 -9.175781 2.15625 -9.65625 C 2.625 -10.132812 3.1875 -10.5 3.84375 -10.75 C 4.507812 -11.007812 5.253906 -11.140625 6.078125 -11.140625 C 6.910156 -11.140625 7.65625 -11.007812 8.3125 -10.75 C 8.96875 -10.5 9.53125 -10.132812 10 -9.65625 C 10.46875 -9.175781 10.828125 -8.582031 11.078125 -7.875 C 11.328125 -7.175781 11.453125 -6.375 11.453125 -5.46875 C 11.453125 -4.5625 11.328125 -3.753906 11.078125 -3.046875 C 10.828125 -2.347656 10.46875 -1.757812 10 -1.28125 C 9.53125 -0.800781 8.96875 -0.429688 8.3125 -0.171875 C 7.65625 0.078125 6.910156 0.203125 6.078125 0.203125 Z M 6.078125 -2.375 C 6.410156 -2.375 6.726562 -2.429688 7.03125 -2.546875 C 7.332031 -2.660156 7.597656 -2.84375 7.828125 -3.09375 C 8.054688 -3.351562 8.234375 -3.675781 8.359375 -4.0625 C 8.492188 -4.457031 8.5625 -4.925781 8.5625 -5.46875 C 8.5625 -6 8.492188 -6.460938 8.359375 -6.859375 C 8.234375 -7.253906 8.054688 -7.578125 7.828125 -7.828125 C 7.597656 -8.078125 7.332031 -8.257812 7.03125 -8.375 C 6.726562 -8.5 6.410156 -8.5625 6.078125 -8.5625 C 5.753906 -8.5625 5.441406 -8.5 5.140625 -8.375 C 4.835938 -8.257812 4.570312 -8.078125 4.34375 -7.828125 C 4.113281 -7.578125 3.929688 -7.253906 3.796875 -6.859375 C 3.671875 -6.460938 3.609375 -6 3.609375 -5.46875 C 3.609375 -4.925781 3.671875 -4.457031 3.796875 -4.0625 C 3.929688 -3.675781 4.113281 -3.351562 4.34375 -3.09375 C 4.570312 -2.84375 4.835938 -2.660156 5.140625 -2.546875 C 5.441406 -2.429688 5.753906 -2.375 6.078125 -2.375 Z M 6.078125 -2.375 "/></g></g><g style="fill:#ffffff;fill-opacity:1;"><g transform="translate(59.41745, 21.040912)"><path style="stroke:none" d="M 1.4375 -14.4375 L 8.25 -14.4375 C 9.707031 -14.4375 10.8125 -14.078125 11.5625 -13.359375 C 12.3125 -12.648438 12.6875 -11.671875 12.6875 -10.421875 C 12.6875 -9.691406 12.503906 -9.054688 12.140625 -8.515625 C 11.785156 -7.984375 11.347656 -7.585938 10.828125 -7.328125 C 11.398438 -7.066406 11.882812 -6.65625 12.28125 -6.09375 C 12.6875 -5.539062 12.890625 -4.847656 12.890625 -4.015625 C 12.890625 -2.765625 12.515625 -1.78125 11.765625 -1.0625 C 11.015625 -0.351562 9.910156 0 8.453125 0 L 1.4375 0 Z M 8.046875 -2.6875 C 8.617188 -2.6875 9.050781 -2.828125 9.34375 -3.109375 C 9.644531 -3.398438 9.796875 -3.804688 9.796875 -4.328125 C 9.796875 -4.847656 9.644531 -5.253906 9.34375 -5.546875 C 9.050781 -5.835938 8.617188 -5.984375 8.046875 -5.984375 L 4.53125 -5.984375 L 4.53125 -2.6875 Z M 7.84375 -8.453125 C 8.414062 -8.453125 8.847656 -8.597656 9.140625 -8.890625 C 9.441406 -9.179688 9.59375 -9.585938 9.59375 -10.109375 C 9.59375 -10.628906 9.441406 -11.03125 9.140625 -11.3125 C 8.847656 -11.601562 8.414062 -11.75 7.84375 -11.75 L 4.53125 -11.75 L 4.53125 -8.453125 Z M 7.84375 -8.453125 "/></g></g><g style="fill:#ffffff;fill-opacity:1;"><g transform="translate(73.125315, 21.040912)"><path style="stroke:none" d="M 1.234375 -10.9375 L 4.125 -10.9375 L 4.125 0 L 1.234375 0 Z M 2.6875 -12.0625 C 2.21875 -12.0625 1.820312 -12.21875 1.5 -12.53125 C 1.1875 -12.851562 1.03125 -13.25 1.03125 -13.71875 C 1.03125 -14.1875 1.1875 -14.578125 1.5 -14.890625 C 1.820312 -15.203125 2.21875 -15.359375 2.6875 -15.359375 C 3.144531 -15.359375 3.53125 -15.203125 3.84375 -14.890625 C 4.164062 -14.578125 4.328125 -14.1875 4.328125 -13.71875 C 4.328125 -13.25 4.164062 -12.851562 3.84375 -12.53125 C 3.53125 -12.21875 3.144531 -12.0625 2.6875 -12.0625 Z M 2.6875 -12.0625 "/></g></g><g style="fill:#ffffff;fill-opacity:1;"><g transform="translate(78.484779, 21.040912)"><path style="stroke:none" d="M 1.34375 -14.4375 L 4.234375 -14.4375 L 4.234375 -6.078125 L 8.25 -10.9375 L 11.65625 -10.9375 L 7.21875 -5.5625 L 11.96875 0 L 8.5625 0 L 4.234375 -5.046875 L 4.234375 0 L 1.34375 0 Z M 1.34375 -14.4375 "/></g></g><g style="fill:#ffffff;fill-opacity:1;"><g transform="translate(90.028243, 21.040912)"><path style="stroke:none" d="M 6.078125 0.203125 C 5.253906 0.203125 4.507812 0.078125 3.84375 -0.171875 C 3.1875 -0.429688 2.625 -0.800781 2.15625 -1.28125 C 1.695312 -1.757812 1.34375 -2.347656 1.09375 -3.046875 C 0.84375 -3.753906 0.71875 -4.5625 0.71875 -5.46875 C 0.71875 -6.375 0.84375 -7.175781 1.09375 -7.875 C 1.34375 -8.582031 1.695312 -9.175781 2.15625 -9.65625 C 2.625 -10.132812 3.1875 -10.5 3.84375 -10.75 C 4.507812 -11.007812 5.253906 -11.140625 6.078125 -11.140625 C 6.878906 -11.140625 7.601562 -11.003906 8.25 -10.734375 C 8.894531 -10.460938 9.445312 -10.082031 9.90625 -9.59375 C 10.363281 -9.113281 10.71875 -8.539062 10.96875 -7.875 C 11.21875 -7.207031 11.34375 -6.472656 11.34375 -5.671875 C 11.34375 -5.515625 11.332031 -5.367188 11.3125 -5.234375 C 11.300781 -5.097656 11.289062 -4.976562 11.28125 -4.875 C 11.269531 -4.75 11.253906 -4.632812 11.234375 -4.53125 L 3.71875 -4.53125 C 3.820312 -3.914062 4.054688 -3.398438 4.421875 -2.984375 C 4.796875 -2.578125 5.347656 -2.375 6.078125 -2.375 C 6.648438 -2.375 7.066406 -2.460938 7.328125 -2.640625 C 7.597656 -2.828125 7.835938 -3.082031 8.046875 -3.40625 L 11.140625 -3.40625 C 11.015625 -2.9375 10.820312 -2.484375 10.5625 -2.046875 C 10.3125 -1.617188 9.984375 -1.234375 9.578125 -0.890625 C 9.171875 -0.554688 8.675781 -0.289062 8.09375 -0.09375 C 7.519531 0.101562 6.847656 0.203125 6.078125 0.203125 Z M 8.359375 -6.703125 C 8.296875 -6.929688 8.207031 -7.15625 8.09375 -7.375 C 7.976562 -7.601562 7.828125 -7.804688 7.640625 -7.984375 C 7.453125 -8.160156 7.226562 -8.300781 6.96875 -8.40625 C 6.707031 -8.507812 6.410156 -8.5625 6.078125 -8.5625 C 5.410156 -8.5625 4.882812 -8.378906 4.5 -8.015625 C 4.125 -7.660156 3.863281 -7.222656 3.71875 -6.703125 Z M 8.359375 -6.703125 "/></g></g></g></g></g></g></svg>